<?xml version="1.0" encoding="UTF-8"?>
<svg width="326px" height="40px" viewBox="0 0 326 40" version="1.1" xmlns="http://www.w3.org/2000/svg" xmlns:xlink="http://www.w3.org/1999/xlink">
    <title>StartButton</title>
    <g id="StartButton" stroke="none" stroke-width="1" fill="none" fill-rule="evenodd">
        <g id="IconDoor" transform="translate(0.542373, 0.000000)" fill="#545454" fill-rule="nonzero">
            <path d="M13.7288136,0 C10,0 6.51610169,3.13389831 4.12669492,6.99364407 C2.0190678,10.3983051 0.796186441,14.6904237 2.21694915,18.4572034 L0,19.565678 L0,36.8644068 L3.05084746,36.8644068 L3.05084746,21.4512712 L6.39288136,19.7801695 L5.54542373,18.3676271 C3.92694915,15.670339 4.70338983,11.8583051 6.72076271,8.59957627 C8.73813559,5.34067797 12.0338983,3.05084746 13.7288136,3.05084746 C15.4237288,3.05084746 18.7194915,5.34067797 20.7368644,8.59957627 C22.7542373,11.8583898 23.530678,15.670339 21.9122881,18.3676271 L21.0648305,19.7801695 L24.4067797,21.4512712 L24.4067797,36.8644068 L27.4576271,36.8644068 L27.4576271,19.565678 L25.240678,18.4572034 C26.6615254,14.6904237 25.4384746,10.3983051 23.3309322,6.99364407 C20.9415254,3.13389831 17.4576271,0 13.7288136,0 Z M14.4915254,4.61322034 L14.4915254,40 L23.0508475,40 L23.0508475,22.2894915 L19.115,20.3212712 C20.1337288,18.6922881 21.4982203,17.0125424 21.4316102,14.9925424 C21.2314407,10.8066949 18.5801695,6.94720339 14.9888983,4.83847458 C14.8301695,4.75745763 14.6632203,4.67881356 14.4915254,4.61322034 Z M12.9661017,4.64576271 C10.8536441,5.44991525 9.33161017,7.31881356 8.01991525,9.09152542 C6.54991525,11.3223729 5.59194915,14.0959322 6.29322034,16.7589831 C6.64135593,17.8525424 7.21491525,18.6887288 7.7620339,19.8508475 C8.05220339,20.3914407 7.96889831,20.2463559 5.90771186,21.5388136 L4.40677966,22.2894915 L4.40677966,40 L12.9661017,40 L12.9661017,4.64576271 Z M6.18644068,28.6440678 L7.71186441,28.6440678 C7.71186441,29.1313559 7.86728814,29.4002542 8.09144068,29.5994068 C8.31550847,29.7986441 8.6440678,29.9152542 8.98305085,29.9152542 C9.3220339,29.9152542 9.65059322,29.7986441 9.87466102,29.5994068 C10.0988136,29.4002542 10.2542373,29.1313559 10.2542373,28.6440678 L11.779661,28.6440678 C11.779661,29.5127119 11.4266102,30.2607627 10.8880508,30.7395763 C10.3494068,31.2183051 9.66101695,31.440678 8.98305085,31.440678 C8.30508475,31.440678 7.61669492,31.2183051 7.07805085,30.7395763 C6.53949153,30.2607627 6.18644068,29.5127119 6.18644068,28.6440678 Z M15.6779661,28.6440678 L17.2033898,28.6440678 C17.2033898,29.1313559 17.3588136,29.4002542 17.5829661,29.5994068 C17.8070339,29.7986441 18.1355932,29.9152542 18.4745763,29.9152542 C18.8135593,29.9152542 19.1421186,29.7986441 19.3661864,29.5994068 C19.590339,29.4002542 19.7457627,29.1313559 19.7457627,28.6440678 L21.2711864,28.6440678 C21.2711864,29.5127119 20.9181356,30.2607627 20.3795763,30.7395763 C19.8409322,31.2183051 19.1525424,31.440678 18.4745763,31.440678 C17.7966102,31.440678 17.1082203,31.2183051 16.5695763,30.7395763 C16.0310169,30.2607627 15.6779661,29.5127119 15.6779661,28.6440678 Z M0,38.3898305 L0,40 L3.05084746,40 L3.05084746,38.3898305 L0,38.3898305 Z M24.4067797,38.3898305 L24.4067797,40 L27.4576271,40 L27.4576271,38.3898305 L24.4067797,38.3898305 Z" id="Shape"></path>
        </g>
        <g id="IconDoor-Copy" transform="translate(297.542373, 0.000000)" fill="#545454" fill-rule="nonzero">
            <path d="M13.7288136,0 C10,0 6.51610169,3.13389831 4.12669492,6.99364407 C2.0190678,10.3983051 0.796186441,14.6904237 2.21694915,18.4572034 L0,19.565678 L0,36.8644068 L3.05084746,36.8644068 L3.05084746,21.4512712 L6.39288136,19.7801695 L5.54542373,18.3676271 C3.92694915,15.670339 4.70338983,11.8583051 6.72076271,8.59957627 C8.73813559,5.34067797 12.0338983,3.05084746 13.7288136,3.05084746 C15.4237288,3.05084746 18.7194915,5.34067797 20.7368644,8.59957627 C22.7542373,11.8583898 23.530678,15.670339 21.9122881,18.3676271 L21.0648305,19.7801695 L24.4067797,21.4512712 L24.4067797,36.8644068 L27.4576271,36.8644068 L27.4576271,19.565678 L25.240678,18.4572034 C26.6615254,14.6904237 25.4384746,10.3983051 23.3309322,6.99364407 C20.9415254,3.13389831 17.4576271,0 13.7288136,0 Z M14.4915254,4.61322034 L14.4915254,40 L23.0508475,40 L23.0508475,22.2894915 L19.115,20.3212712 C20.1337288,18.6922881 21.4982203,17.0125424 21.4316102,14.9925424 C21.2314407,10.8066949 18.5801695,6.94720339 14.9888983,4.83847458 C14.8301695,4.75745763 14.6632203,4.67881356 14.4915254,4.61322034 Z M12.9661017,4.64576271 C10.8536441,5.44991525 9.33161017,7.31881356 8.01991525,9.09152542 C6.54991525,11.3223729 5.59194915,14.0959322 6.29322034,16.7589831 C6.64135593,17.8525424 7.21491525,18.6887288 7.7620339,19.8508475 C8.05220339,20.3914407 7.96889831,20.2463559 5.90771186,21.5388136 L4.40677966,22.2894915 L4.40677966,40 L12.9661017,40 L12.9661017,4.64576271 Z M6.18644068,28.6440678 L7.71186441,28.6440678 C7.71186441,29.1313559 7.86728814,29.4002542 8.09144068,29.5994068 C8.31550847,29.7986441 8.6440678,29.9152542 8.98305085,29.9152542 C9.3220339,29.9152542 9.65059322,29.7986441 9.87466102,29.5994068 C10.0988136,29.4002542 10.2542373,29.1313559 10.2542373,28.6440678 L11.779661,28.6440678 C11.779661,29.5127119 11.4266102,30.2607627 10.8880508,30.7395763 C10.3494068,31.2183051 9.66101695,31.440678 8.98305085,31.440678 C8.30508475,31.440678 7.61669492,31.2183051 7.07805085,30.7395763 C6.53949153,30.2607627 6.18644068,29.5127119 6.18644068,28.6440678 Z M15.6779661,28.6440678 L17.2033898,28.6440678 C17.2033898,29.1313559 17.3588136,29.4002542 17.5829661,29.5994068 C17.8070339,29.7986441 18.1355932,29.9152542 18.4745763,29.9152542 C18.8135593,29.9152542 19.1421186,29.7986441 19.3661864,29.5994068 C19.590339,29.4002542 19.7457627,29.1313559 19.7457627,28.6440678 L21.2711864,28.6440678 C21.2711864,29.5127119 20.9181356,30.2607627 20.3795763,30.7395763 C19.8409322,31.2183051 19.1525424,31.440678 18.4745763,31.440678 C17.7966102,31.440678 17.1082203,31.2183051 16.5695763,30.7395763 C16.0310169,30.2607627 15.6779661,29.5127119 15.6779661,28.6440678 Z M0,38.3898305 L0,40 L3.05084746,40 L3.05084746,38.3898305 L0,38.3898305 Z M24.4067797,38.3898305 L24.4067797,40 L27.4576271,40 L27.4576271,38.3898305 L24.4067797,38.3898305 Z" id="Shape"></path>
        </g>
        <g id="Button" transform="translate(48.000000, 0.000000)">
            <rect id="Rectangle" fill="#545454" x="0" y="0" width="230" height="40" rx="6"></rect>
            <text id="Play-The-Adventure!" font-family="AvenirNext-Medium, Avenir Next" font-size="20" font-weight="400" fill="#FFFFFF">
                <tspan x="22.66" y="26">Play The Adventure!</tspan>
            </text>
        </g>
    </g>
</svg>